<svg xmlns="http://www.w3.org/2000/svg" viewBox="0 0 96 96"><defs><style>.cls-1{fill:currentColor}.cls-2{fill:none;stroke:currentColor;stroke-miterlimit:10;stroke-width:4px}</style></defs><title>libp2p_icons_doc</title><g id="Layer_25" data-name="Layer 25"><path d="M66.53,18.76a8,8,0,0,1,8,8V69.24a8,8,0,0,1-8,8H29.47a8,8,0,0,1-8-8V26.76a8,8,0,0,1,8-8H66.53m0-4H29.47a12,12,0,0,0-12,12V69.24a12,12,0,0,0,12,12H66.53a12,12,0,0,0,12-12V26.76a12,12,0,0,0-12-12Z" class="cls-1"/><line x1="30.94" x2="65.06" y1="32.81" y2="32.81" class="cls-2"/><line x1="30.94" x2="65.06" y1="45" y2="45" class="cls-2"/><line x1="30.94" x2="65.06" y1="57.2" y2="57.2" class="cls-2"/></g></svg>